<svg width="50" height="74" viewBox="0 0 50 74" fill="none" xmlns="http://www.w3.org/2000/svg">
<path opacity="0.5" d="M49.8476 17.7379C49.8476 21.3298 48.9842 24.5764 47.2573 27.4776C45.5995 30.3097 43.3891 32.9 40.6261 35.2486C37.863 37.5971 34.8928 39.8766 31.7153 42.0871C28.6069 44.2284 25.5676 46.4734 22.5973 48.8219C19.6961 51.1014 17.1749 53.5882 15.0335 56.2821C12.8922 58.9761 11.4761 62.0499 10.7854 65.5037H43.7345L42.2839 74H0.631261C0.562185 73.4474 0.493109 72.8257 0.424034 72.135C0.354958 71.4442 0.32042 70.788 0.32042 70.1663C0.32042 65.331 1.25294 61.0829 3.11798 57.4218C5.0521 53.6918 7.50429 50.3761 10.4745 47.475C13.5139 44.5738 16.6913 41.9144 20.007 39.4967C23.3917 37.0791 26.5692 34.7996 29.5394 32.6582C32.5787 30.4478 35.0309 28.2029 36.896 25.9234C38.8301 23.6439 39.7971 21.1571 39.7971 18.4632C39.7971 15.4239 38.761 13.0062 36.6887 11.2103C34.6165 9.41429 32.0607 8.5163 29.0213 8.5163C26.0511 8.5163 23.3571 9.06891 20.9395 10.1741C18.5909 11.2793 16.2424 12.8335 13.8938 14.8367L9.54202 7.791C12.3741 5.51151 15.448 3.68101 18.7636 2.2995C22.0792 0.917984 25.8784 0.227228 30.1611 0.227228C34.0984 0.227228 37.5176 0.987059 40.4188 2.50672C43.3891 4.02638 45.7031 6.09865 47.3609 8.72353C49.0187 11.3484 49.8476 14.3532 49.8476 17.7379Z" fill="url(#paint0_linear_1_414)"/>
<defs>
<linearGradient id="paint0_linear_1_414" x1="25.5" y1="16.5" x2="25.5" y2="108" gradientUnits="userSpaceOnUse">
<stop stop-color="#FFBE2E" stop-opacity="0.76"/>
<stop offset="1" stop-color="#FFBE2E" stop-opacity="0"/>
</linearGradient>
</defs>
</svg>
