<svg width="51" height="76" viewBox="0 0 51 76" fill="none" xmlns="http://www.w3.org/2000/svg">
<path opacity="0.25" d="M13.6818 40.5148L14.9251 32.951H18.2408C25.0102 32.951 30.4326 31.7422 34.5081 29.3245C38.5835 26.8378 40.6213 23.4876 40.6213 19.274C40.6213 16.0966 39.5161 13.5753 37.3056 11.7103C35.1643 9.77614 32.4013 8.80908 29.0166 8.80908C25.8391 8.80908 23.1106 9.32714 20.8311 10.3633C18.5516 11.3303 16.5139 12.4701 14.7179 13.7825L11.0914 6.7368C13.5091 5.00992 16.2721 3.59387 19.3805 2.48865C22.558 1.31437 26.1499 0.727228 30.1563 0.727228C34.3699 0.727228 37.9618 1.5216 40.9321 3.11034C43.9714 4.69908 46.2855 6.80588 47.8742 9.43076C49.4629 11.9866 50.2573 14.7496 50.2573 17.7198C50.2573 22.5551 48.8413 26.4924 46.0092 29.5318C43.1771 32.502 39.0325 34.816 33.5755 36.4739C37.9273 37.9935 41.2775 40.2385 43.6261 43.2087C45.9746 46.179 47.1489 49.7018 47.1489 53.7773C47.1489 58.1982 46.0092 62.0664 43.7297 65.382C41.4502 68.6976 38.3072 71.2534 34.3008 73.0494C30.3635 74.8454 25.8391 75.7434 20.7275 75.7434C16.7902 75.7434 13.0601 75.2253 9.53723 74.1892C6.08345 73.0839 3.14773 71.5988 0.730084 69.7338L6.2216 62.3772C7.94849 63.8278 10.0208 65.0366 12.4384 66.0037C14.8561 66.9708 17.6191 67.4543 20.7275 67.4543C25.4246 67.4543 29.3274 66.3145 32.4358 64.035C35.5442 61.7555 37.0984 58.4745 37.0984 54.1918C37.0984 50.3926 35.6133 47.1806 32.643 44.5557C29.6728 41.8618 25.1138 40.5148 18.9661 40.5148H13.6818Z" fill="url(#paint0_linear_1_444)"/>
<defs>
<linearGradient id="paint0_linear_1_444" x1="28.5" y1="9" x2="28.5" y2="77.5" gradientUnits="userSpaceOnUse">
<stop stop-opacity="0.8"/>
<stop offset="1" stop-opacity="0.16"/>
</linearGradient>
</defs>
</svg>
