<svg width="200" height="59" viewBox="0 0 200 59" fill="none" xmlns="http://www.w3.org/2000/svg">
<g filter="url(#filter0_dd_2_837)">
<path d="M20.4798 43.4738C16.4031 43.4738 12.5764 42.3899 9.2545 40.4963L5.76929 46.7742C10.1204 49.2624 15.1355 50.6875 20.4798 50.6875C25.8242 50.6875 30.8393 49.2624 35.1904 46.7742L31.705 40.4963C28.3831 42.3899 24.5566 43.4738 20.4798 43.4738Z" fill="#AF7CFF"/>
<path d="M40.9911 0V7.65154H34.2576C34.2547 7.65154 34.2465 7.65366 34.242 7.6543C35.8962 10.3115 36.8504 13.5105 36.8504 17.0106C36.8504 26.5676 29.6645 34.0676 20.4252 34.0676C11.1219 34.0676 4 26.5676 4 17.0106C4 7.38713 11.1219 0.0201916 20.4252 0.0201916C24.7247 0.0201916 28.5781 1.61681 31.4712 4.29251C32.2464 3.40175 33.4472 2.10651 34.1575 1.56346C34.9348 0.969195 34.8165 0.988111 35.653 0.591931C36.4898 0.195539 37.909 0 40.9911 0ZM78.8498 0.0201916C88.089 0.0201916 95.275 7.38713 95.275 17.0106C95.275 26.5676 88.089 34.0676 78.8498 34.0676C69.5464 34.0676 62.4246 26.5676 62.4246 17.0106C62.4246 7.38713 69.5464 0.0201916 78.8498 0.0201916ZM115.497 0.0225295C124.736 0.0225295 131.921 7.38905 131.921 17.0119C131.921 26.5683 124.736 34.0676 115.497 34.0676C106.194 34.0676 99.0729 26.5683 99.0729 17.0119C99.0729 7.38905 106.194 0.0225295 115.497 0.0225295ZM180.703 0.00414458C183.459 0.00414458 185.83 0.513397 187.751 1.51787C189.663 2.51874 191.26 3.84777 192.497 5.46798C193.728 7.08415 194.631 8.92817 195.18 10.9495C195.725 12.9548 196 15.0203 196 17.0896V19.4503H171.621C171.681 20.5492 171.949 21.8197 172.42 22.7394C172.966 23.8053 173.692 24.7271 174.581 25.478C175.477 26.237 176.53 26.8343 177.71 27.2542C178.895 27.6776 180.14 27.8919 181.408 27.8919C183.107 27.8919 184.6 27.4814 185.844 26.6717C187.122 25.8398 188.314 24.7246 189.389 23.3577L189.676 22.9913L194.779 27.0272L194.49 27.4137C191.202 31.8124 186.542 34.0422 180.638 34.0422C178.192 34.0422 175.939 33.605 173.942 32.7436C171.944 31.8813 170.226 30.6698 168.838 29.142C167.454 27.6188 166.373 25.7994 165.627 23.7339C164.883 21.6761 164.506 19.4189 164.506 17.0237C164.506 14.6243 164.917 12.362 165.729 10.3003C166.539 8.23741 167.673 6.4206 169.1 4.89922C170.529 3.37592 172.254 2.16634 174.229 1.30342C176.206 0.441132 178.384 0.00414458 180.703 0.00414458ZM139.562 0.767747L147.946 24.117L156.457 0.767747H163.825L151.645 33.2868H144.248L132.194 0.767747H139.562ZM60.9455 2.12542e-05V7.65156H54.212C54.1438 7.65156 53.6941 7.80326 53.219 7.96888L53.0509 8.02769C52.7709 8.12591 52.4966 8.22335 52.3005 8.29195V33.2868H45.5199V0.761137H52.3005V3.31888C52.9412 2.62811 53.6367 1.92693 54.1119 1.56349C54.8895 0.969216 54.7709 0.988132 55.6076 0.591953C56.4443 0.195561 57.8635 2.12542e-05 60.9455 2.12542e-05ZM115.497 7.12358C110.236 7.12358 106.194 11.57 106.194 17.0119C106.194 22.4536 110.236 26.9003 115.497 26.9003C120.822 26.9003 124.736 22.4536 124.736 17.0119C124.736 11.57 120.822 7.12358 115.497 7.12358ZM20.4252 7.12167C15.1641 7.12167 11.1219 11.5683 11.1219 17.0106C11.1219 22.4528 15.1641 26.8996 20.4252 26.8996C25.7506 26.8996 29.6645 22.4528 29.6645 17.0106C29.6645 11.5683 25.7506 7.12167 20.4252 7.12167ZM78.8498 7.12167C73.5887 7.12167 69.5464 11.5685 69.5464 17.0106C69.5464 22.4528 73.5887 26.8996 78.8498 26.8996C84.1752 26.8996 88.089 22.4528 88.089 17.0106C88.089 11.5685 84.1752 7.12167 78.8498 7.12167ZM180.574 5.75682C179.237 5.75682 177.996 6.02144 176.885 6.54345C175.768 7.06906 174.813 7.75855 174.046 8.59363C173.276 9.43233 172.67 10.3788 172.244 11.4056C171.89 12.2589 171.683 12.8513 171.625 13.687H188.874C188.802 12.6032 188.614 11.854 188.314 10.938C187.973 9.90247 187.456 8.98896 186.776 8.22232C186.096 7.45929 185.234 6.85142 184.215 6.41741C183.186 5.97893 181.961 5.75682 180.574 5.75682Z" fill="#AF7CFF"/>
</g>
<defs>
<filter id="filter0_dd_2_837" x="0" y="0" width="200" height="59" filterUnits="userSpaceOnUse" color-interpolation-filters="sRGB">
<feFlood flood-opacity="0" result="BackgroundImageFix"/>
<feColorMatrix in="SourceAlpha" type="matrix" values="0 0 0 0 0 0 0 0 0 0 0 0 0 0 0 0 0 0 127 0" result="hardAlpha"/>
<feOffset dy="4"/>
<feGaussianBlur stdDeviation="2"/>
<feComposite in2="hardAlpha" operator="out"/>
<feColorMatrix type="matrix" values="0 0 0 0 0 0 0 0 0 0 0 0 0 0 0 0 0 0 0.25 0"/>
<feBlend mode="normal" in2="BackgroundImageFix" result="effect1_dropShadow_2_837"/>
<feColorMatrix in="SourceAlpha" type="matrix" values="0 0 0 0 0 0 0 0 0 0 0 0 0 0 0 0 0 0 127 0" result="hardAlpha"/>
<feOffset dy="4"/>
<feGaussianBlur stdDeviation="2"/>
<feComposite in2="hardAlpha" operator="out"/>
<feColorMatrix type="matrix" values="0 0 0 0 0 0 0 0 0 0 0 0 0 0 0 0 0 0 0.25 0"/>
<feBlend mode="normal" in2="effect1_dropShadow_2_837" result="effect2_dropShadow_2_837"/>
<feBlend mode="normal" in="SourceGraphic" in2="effect2_dropShadow_2_837" result="shape"/>
</filter>
</defs>
</svg>
