<svg width="31" height="32" viewBox="0 0 31 32" fill="none" xmlns="http://www.w3.org/2000/svg">
<g opacity="0.6">
<path d="M30.6454 15.7573C30.6454 18.7878 29.7468 21.7502 28.0631 24.27C26.3795 26.7897 23.9864 28.7537 21.1866 29.9134C18.3868 31.0731 15.3059 31.3765 12.3337 30.7853C9.36142 30.1941 6.63122 28.7348 4.48833 26.5919C2.34545 24.449 0.886125 21.7188 0.294905 18.7465C-0.296315 15.7743 0.00712039 12.6934 1.16684 9.89362C2.32656 7.09381 4.29048 4.70077 6.81025 3.01711C9.33001 1.33346 12.2925 0.434814 15.3229 0.434814V1.91586C12.5854 1.91586 9.90928 2.72765 7.63307 4.24856C5.35686 5.76947 3.58277 7.93121 2.53515 10.4604C1.48753 12.9896 1.21342 15.7726 1.74749 18.4576C2.28157 21.1426 3.59983 23.6089 5.53559 25.5446C7.47135 27.4804 9.93765 28.7987 12.6226 29.3327C15.3076 29.8668 18.0906 29.5927 20.6198 28.5451C23.149 27.4974 25.3107 25.7234 26.8317 23.4471C28.3526 21.1709 29.1644 18.4948 29.1644 15.7573H30.6454Z" fill="white"/>
<path d="M17.1965 16.6228L16.8845 18.4348H15.8285L16.1405 16.6228H12.5645L12.7085 15.7828L16.2245 9.95081L17.1485 10.3468L13.9685 15.6628H16.3085L16.7405 13.2748H17.7965L17.3645 15.6628H18.3965L18.2285 16.6228H17.1965Z" fill="white"/>
</g>
</svg>
