<svg width="31" height="31" viewBox="0 0 31 31" fill="none" xmlns="http://www.w3.org/2000/svg">
<g opacity="0.6">
<path d="M30.6454 15.4677C30.6454 18.4982 29.7468 21.4607 28.0631 23.9804C26.3795 26.5002 23.9864 28.4641 21.1866 29.6238C18.3868 30.7835 15.3059 31.087 12.3337 30.4958C9.36142 29.9045 6.63122 28.4452 4.48833 26.3023C2.34545 24.1595 0.886125 21.4293 0.294905 18.457C-0.296315 15.4847 0.00712039 12.4039 1.16684 9.60407C2.32656 6.80426 4.29048 4.41122 6.81025 2.72756C9.33001 1.04391 12.2925 0.145264 15.3229 0.145264V1.62631C12.5854 1.62631 9.90928 2.43809 7.63307 3.95901C5.35686 5.47992 3.58277 7.64166 2.53515 10.1708C1.48753 12.7 1.21342 15.4831 1.74749 18.168C2.28157 20.853 3.59983 23.3193 5.53559 25.2551C7.47135 27.1908 9.93765 28.5091 12.6226 29.0432C15.3076 29.5772 18.0906 29.3031 20.6198 28.2555C23.149 27.2079 25.3107 25.4338 26.8317 23.1576C28.3526 20.8814 29.1644 18.2053 29.1644 15.4677H30.6454Z" fill="white"/>
<path d="M18.4685 11.6293C18.4685 12.0453 18.3685 12.4213 18.1685 12.7573C17.9765 13.0853 17.7205 13.3853 17.4005 13.6573C17.0805 13.9293 16.7365 14.1933 16.3685 14.4493C16.0085 14.6973 15.6565 14.9573 15.3125 15.2293C14.9765 15.4933 14.6845 15.7813 14.4365 16.0933C14.1885 16.4053 14.0245 16.7613 13.9445 17.1613H17.7605L17.5925 18.1453H12.7685C12.7605 18.0813 12.7525 18.0093 12.7445 17.9293C12.7365 17.8493 12.7325 17.7733 12.7325 17.7013C12.7325 17.1413 12.8405 16.6493 13.0565 16.2253C13.2805 15.7933 13.5645 15.4093 13.9085 15.0733C14.2605 14.7373 14.6285 14.4293 15.0125 14.1493C15.4045 13.8693 15.7725 13.6053 16.1165 13.3573C16.4685 13.1013 16.7525 12.8413 16.9685 12.5773C17.1925 12.3133 17.3045 12.0253 17.3045 11.7133C17.3045 11.3613 17.1845 11.0813 16.9445 10.8733C16.7045 10.6653 16.4085 10.5613 16.0565 10.5613C15.7125 10.5613 15.4005 10.6253 15.1205 10.7533C14.8485 10.8813 14.5765 11.0613 14.3045 11.2933L13.8005 10.4773C14.1285 10.2133 14.4845 10.0013 14.8685 9.84126C15.2525 9.68126 15.6925 9.60126 16.1885 9.60126C16.6445 9.60126 17.0405 9.68926 17.3765 9.86526C17.7205 10.0413 17.9885 10.2813 18.1805 10.5853C18.3725 10.8893 18.4685 11.2373 18.4685 11.6293Z" fill="white"/>
</g>
</svg>
