<svg width="31" height="32" viewBox="0 0 31 32" fill="none" xmlns="http://www.w3.org/2000/svg">
<g opacity="0.6">
<path d="M30.6454 16.1125C30.6454 19.143 29.7468 22.1054 28.0631 24.6252C26.3795 27.145 23.9864 29.1089 21.1866 30.2686C18.3868 31.4283 15.3059 31.7318 12.3337 31.1405C9.36142 30.5493 6.63122 29.09 4.48833 26.9471C2.34545 24.8042 0.886125 22.074 0.294905 19.1018C-0.296315 16.1295 0.00712039 13.0487 1.16684 10.2488C2.32656 7.44903 4.29048 5.05599 6.81025 3.37234C9.33001 1.68869 12.2925 0.790039 15.3229 0.790039V2.27109C12.5854 2.27109 9.90928 3.08287 7.63307 4.60378C5.35686 6.1247 3.58277 8.28643 2.53515 10.8156C1.48753 13.3448 1.21342 16.1279 1.74749 18.8128C2.28157 21.4978 3.59983 23.9641 5.53559 25.8999C7.47135 27.8356 9.93765 29.1539 12.6226 29.688C15.3076 30.222 18.0906 29.9479 20.6198 28.9003C23.149 27.8527 25.3107 26.0786 26.8317 23.8024C28.3526 21.5262 29.1644 18.8501 29.1644 16.1125H30.6454Z" fill="white"/>
<path d="M13.9325 14.854L14.0765 13.978H14.4605C15.2445 13.978 15.8725 13.838 16.3445 13.558C16.8165 13.27 17.0525 12.882 17.0525 12.394C17.0525 12.026 16.9245 11.734 16.6685 11.518C16.4205 11.294 16.1005 11.182 15.7085 11.182C15.3405 11.182 15.0245 11.242 14.7605 11.362C14.4965 11.474 14.2605 11.606 14.0525 11.758L13.6325 10.942C13.9125 10.742 14.2325 10.578 14.5925 10.45C14.9605 10.314 15.3765 10.246 15.8405 10.246C16.3285 10.246 16.7445 10.338 17.0885 10.522C17.4405 10.706 17.7085 10.95 17.8925 11.254C18.0765 11.55 18.1685 11.87 18.1685 12.214C18.1685 12.774 18.0045 13.23 17.6765 13.582C17.3485 13.926 16.8685 14.194 16.2365 14.386C16.7405 14.562 17.1285 14.822 17.4005 15.166C17.6725 15.51 17.8085 15.918 17.8085 16.39C17.8085 16.902 17.6765 17.35 17.4125 17.734C17.1485 18.118 16.7845 18.414 16.3205 18.622C15.8645 18.83 15.3405 18.934 14.7485 18.934C14.2925 18.934 13.8605 18.874 13.4525 18.754C13.0525 18.626 12.7125 18.454 12.4325 18.238L13.0685 17.386C13.2685 17.554 13.5085 17.694 13.7885 17.806C14.0685 17.918 14.3885 17.974 14.7485 17.974C15.2925 17.974 15.7445 17.842 16.1045 17.578C16.4645 17.314 16.6445 16.934 16.6445 16.438C16.6445 15.998 16.4725 15.626 16.1285 15.322C15.7845 15.01 15.2565 14.854 14.5445 14.854H13.9325Z" fill="white"/>
</g>
</svg>
