<svg width="31" height="31" viewBox="0 0 31 31" fill="none" xmlns="http://www.w3.org/2000/svg">
<g opacity="0.6">
<path d="M30.6454 15.4019C30.6454 18.4324 29.7468 21.3949 28.0631 23.9146C26.3795 26.4344 23.9864 28.3983 21.1866 29.558C18.3868 30.7178 15.3059 31.0212 12.3337 30.43C9.36142 29.8387 6.63122 28.3794 4.48833 26.2365C2.34545 24.0937 0.886125 21.3635 0.294905 18.3912C-0.296315 15.4189 0.00712039 12.3381 1.16684 9.53827C2.32656 6.73846 4.29048 4.34542 6.81025 2.66177C9.33001 0.978114 12.2925 0.0794677 15.3229 0.0794678V1.56051C12.5854 1.56051 9.90928 2.3723 7.63307 3.89321C5.35686 5.41413 3.58277 7.57586 2.53515 10.105C1.48753 12.6342 1.21342 15.4173 1.74749 18.1023C2.28157 20.7872 3.59983 23.2535 5.53559 25.1893C7.47135 27.125 9.93765 28.4433 12.6226 28.9774C15.3076 29.5115 18.0906 29.2373 20.6198 28.1897C23.149 27.1421 25.3107 25.368 26.8317 23.0918C28.3526 20.8156 29.1644 18.1395 29.1644 15.4019H30.6454Z" fill="white"/>
<path d="M13.1405 16.6155C13.3565 16.8075 13.6125 16.9595 13.9085 17.0715C14.2045 17.1835 14.5285 17.2395 14.8805 17.2395C15.4565 17.2395 15.9365 17.0835 16.3205 16.7715C16.7045 16.4595 16.8965 16.0315 16.8965 15.4875C16.8965 15.0235 16.7245 14.6435 16.3805 14.3475C16.0445 14.0515 15.5525 13.9035 14.9045 13.9035H13.7165L14.4485 9.67947H18.5885L18.4205 10.6515H15.3005L14.9045 12.9315H15.1325C15.7885 12.9315 16.3325 13.0435 16.7645 13.2675C17.1965 13.4835 17.5205 13.7755 17.7365 14.1435C17.9525 14.5035 18.0605 14.8995 18.0605 15.3315C18.0605 15.8995 17.9245 16.4035 17.6525 16.8435C17.3805 17.2755 17.0005 17.6155 16.5125 17.8635C16.0325 18.1035 15.4685 18.2235 14.8205 18.2235C14.3405 18.2235 13.8965 18.1635 13.4885 18.0435C13.0885 17.9155 12.7565 17.7475 12.4925 17.5395L13.1405 16.6155Z" fill="white"/>
</g>
</svg>
