<svg width="31" height="32" viewBox="0 0 31 32" fill="none" xmlns="http://www.w3.org/2000/svg">
<path d="M30.6454 15.8227C30.6454 18.8532 29.7468 21.8156 28.0631 24.3354C26.3795 26.8552 23.9864 28.8191 21.1866 29.9788C18.3868 31.1385 15.3059 31.442 12.3337 30.8507C9.36142 30.2595 6.63122 28.8002 4.48833 26.6573C2.34545 24.5144 0.886125 21.7842 0.294905 18.812C-0.296315 15.8397 0.00712039 12.7589 1.16684 9.95905C2.32656 7.15924 4.29048 4.7662 6.81025 3.08254C9.33001 1.39889 12.2925 0.500244 15.3229 0.500244V2.92082C12.7712 2.92082 10.2768 3.67751 8.15505 5.09518C6.03334 6.51286 4.37968 8.52786 3.40317 10.8854C2.42665 13.2429 2.17115 15.837 2.66897 18.3397C3.1668 20.8425 4.39558 23.1413 6.19994 24.9457C8.0043 26.7501 10.3032 27.9789 12.8059 28.4767C15.3086 28.9745 17.9028 28.719 20.2603 27.7425C22.6178 26.766 24.6328 25.1123 26.0505 22.9906C27.4681 20.8689 28.2248 18.3745 28.2248 15.8227H30.6454Z" fill="white"/>
<path d="M15.0485 17.5402L16.1165 11.5042L14.3285 12.7522L13.8365 11.8882L16.6445 10.1002H17.4365L16.1285 17.5402H17.5565L17.3885 18.5002H13.1645L13.3325 17.5402H15.0485Z" fill="white"/>
</svg>
